<svg width="26" height="26" viewBox="0 0 26 26" fill="none" xmlns="http://www.w3.org/2000/svg">
<g id="Icon">
<path id="Path" d="M22.0002 3.5H4.00024C3.7241 3.5 3.50024 3.72386 3.50024 4V15H22.5002V4C22.5002 3.72386 22.2764 3.5 22.0002 3.5Z" stroke="#4883FF"/>
<path id="Path_2" d="M24.5002 15.1176C24.7764 15.1176 25.0002 14.8938 25.0002 14.6176V3.5C24.9986 2.11997 23.8803 1.00165 22.5002 1H3.50024C2.12022 1.00165 1.0019 2.11997 1.00024 3.5V17.5C1.0019 18.88 2.12022 19.9983 3.50024 20H9.00024V22.2325L7.72274 23.0825C7.58327 23.1756 7.49972 23.3323 7.50024 23.5V24C7.50024 24.5523 7.94796 25 8.50024 25H17.5002C18.0525 25 18.5002 24.5523 18.5002 24V23.5C18.5003 23.3329 18.4168 23.1768 18.2777 23.084L17.0002 22.2325V20.0882C17.0002 19.8121 16.7764 19.5882 16.5002 19.5882C16.2241 19.5882 16.0002 19.8121 16.0002 20.0882V22.5C16.0002 22.6671 16.0837 22.8232 16.2227 22.916L17.5002 23.7675V24H8.50024V23.7675L9.77774 22.9175C9.91722 22.8244 10.0008 22.6677 10.0002 22.5V20H22.5002C23.8803 19.9983 24.9986 18.88 25.0002 17.5V15C25.0002 14.7239 24.7764 14.5 24.5002 14.5H1.8826C1.60645 14.5 1.3826 14.7239 1.3826 15C1.3826 15.2761 1.60645 15.5 1.8826 15.5H24.0002V17.5C24.0002 18.3284 23.3287 19 22.5002 19H3.50024C2.67182 19 2.00024 18.3284 2.00024 17.5V3.5C2.00024 2.67157 2.67182 2 3.50024 2H22.5002C23.3287 2 24.0002 2.67157 24.0002 3.5V14.6176C24.0002 14.8938 24.2241 15.1176 24.5002 15.1176Z" fill="#4883FF" stroke="#4883FF" stroke-width="0.4"/>
<path id="Path_3" d="M10.8538 5.35245C10.6585 5.15726 10.342 5.15726 10.1468 5.35245L7.14676 8.35245C6.95157 8.5477 6.95157 8.8642 7.14676 9.05945L10.1468 12.0594C10.3429 12.2489 10.6548 12.2462 10.8477 12.0534C11.0405 11.8605 11.0432 11.5486 10.8538 11.3524L8.20726 8.70595L10.8538 6.05945C11.049 5.8642 11.049 5.5477 10.8538 5.35245Z" fill="#4883FF"/>
<path id="Path_4" d="M15.1468 12.0594C15.342 12.2546 15.6585 12.2546 15.8538 12.0594L18.8538 9.05936C19.049 8.86411 19.049 8.54761 18.8538 8.35236L15.8538 5.35236C15.7283 5.22239 15.5424 5.17026 15.3675 5.21601C15.1927 5.26177 15.0562 5.3983 15.0104 5.57311C14.9647 5.74792 15.0168 5.93383 15.1468 6.05936L17.7933 8.70586L15.1468 11.3524C14.9516 11.5476 14.9516 11.8641 15.1468 12.0594Z" fill="#4883FF"/>
</g>
</svg>
