<svg width="24" height="25" viewBox="0 0 24 25" fill="none" xmlns="http://www.w3.org/2000/svg">
<g id="tabler:star-filled">
<path id="Vector" d="M8.24301 8.19173L1.86301 9.11673L1.75001 9.13973C1.57895 9.18514 1.423 9.27514 1.2981 9.40053C1.1732 9.52592 1.08381 9.68222 1.03907 9.85346C0.994331 10.0247 0.995837 10.2047 1.04344 10.3752C1.09104 10.5457 1.18303 10.7004 1.31001 10.8237L5.93201 15.3227L4.84201 21.6777L4.82901 21.7877C4.81854 21.9647 4.85528 22.1412 4.93546 22.2992C5.01564 22.4573 5.13639 22.5912 5.28535 22.6872C5.4343 22.7833 5.6061 22.838 5.78316 22.8458C5.96022 22.8537 6.13617 22.8143 6.29301 22.7317L11.999 19.7317L17.692 22.7317L17.792 22.7777C17.9571 22.8427 18.1365 22.8627 18.3118 22.8355C18.4871 22.8083 18.652 22.735 18.7896 22.623C18.9272 22.511 19.0326 22.3645 19.0948 22.1984C19.1571 22.0323 19.1741 21.8526 19.144 21.6777L18.053 15.3227L22.677 10.8227L22.755 10.7377C22.8664 10.6005 22.9395 10.4362 22.9667 10.2615C22.994 10.0869 22.9744 9.90811 22.9101 9.74346C22.8458 9.57881 22.7389 9.43416 22.6005 9.32424C22.4621 9.21432 22.297 9.14307 22.122 9.11773L15.742 8.19173L12.89 2.41173C12.8075 2.24426 12.6797 2.10324 12.5212 2.00463C12.3627 1.90602 12.1797 1.85376 11.993 1.85376C11.8063 1.85376 11.6233 1.90602 11.4648 2.00463C11.3063 2.10324 11.1785 2.24426 11.096 2.41173L8.24301 8.19173Z" fill="#FFD836"/>
</g>
</svg>
